pose16
version=1
nRows=4
nColumns=213
inDegrees=yes
endheader
time	platform_rx	platform_ry	platform_rz	platform_ty	pelvis_tilt	pelvis_list	pelvis_rotation	pelvis_tx	pelvis_ty	pelvis_tz	hip_flexion_r	hip_adduction_r	hip_rotation_r	knee_angle_r	knee_angle_r_beta	ankle_angle_r	subtalar_angle_r	mtp_angle_r	hip_flexion_l	hip_adduction_l	hip_rotation_l	knee_angle_l	knee_angle_l_beta	ankle_angle_l	subtalar_angle_l	mtp_angle_l	lumbar_extension	lumbar_bending	lumbar_rotation	arm_flex_r	arm_add_r	arm_rot_r	elbow_flex_r	pro_sup_r	wrist_flex_r	wrist_dev_r	arm_flex_l	arm_add_l	arm_rot_l	elbow_flex_l	pro_sup_l	wrist_flex_l	wrist_dev_l	platform_rx_u	platform_ry_u	platform_rz_u	platform_ty_u	pelvis_tilt_u	pelvis_list_u	pelvis_rotation_u	pelvis_tx_u	pelvis_ty_u	pelvis_tz_u	hip_flexion_r_u	hip_adduction_r_u	hip_rotation_r_u	knee_angle_r_u	knee_angle_r_beta_u	ankle_angle_r_u	subtalar_angle_r_u	mtp_angle_r_u	hip_flexion_l_u	hip_adduction_l_u	hip_rotation_l_u	knee_angle_l_u	knee_angle_l_beta_u	ankle_angle_l_u	subtalar_angle_l_u	mtp_angle_l_u	lumbar_extension_u	lumbar_bending_u	lumbar_rotation_u	arm_flex_r_u	arm_add_r_u	arm_rot_r_u	elbow_flex_r_u	pro_sup_r_u	wrist_flex_r_u	wrist_dev_r_u	arm_flex_l_u	arm_add_l_u	arm_rot_l_u	elbow_flex_l_u	pro_sup_l_u	wrist_flex_l_u	wrist_dev_l_u	addbrev_r.activation	addlong_r.activation	addlong_r.fiber_length	addmagDist_r.activation	addmagIsch_r.activation	addmagIsch_r.fiber_length	addmagMid_r.activation	addmagProx_r.activation	bflh_r.activation	bflh_r.fiber_length	bfsh_r.activation	edl_r.activation	edl_r.fiber_length	ehl_r.activation	ehl_r.fiber_length	fdl_r.activation	fdl_r.fiber_length	fhl_r.activation	fhl_r.fiber_length	gaslat_r.activation	gaslat_r.fiber_length	gasmed_r.activation	gasmed_r.fiber_length	glmax1_r.activation	glmax2_r.activation	glmax3_r.activation	glmed1_r.activation	glmed2_r.activation	glmed3_r.activation	glmin1_r.activation	glmin2_r.activation	glmin3_r.activation	glmin3_r.fiber_length	grac_r.activation	iliacus_r.activation	perbrev_r.activation	perbrev_r.fiber_length	perlong_r.activation	perlong_r.fiber_length	piri_r.activation	piri_r.fiber_length	psoas_r.activation	recfem_r.activation	recfem_r.fiber_length	sart_r.activation	semimem_r.activation	semimem_r.fiber_length	semiten_r.activation	semiten_r.fiber_length	soleus_r.activation	soleus_r.fiber_length	tfl_r.activation	tfl_r.fiber_length	tibant_r.activation	tibant_r.fiber_length	tibpost_r.activation	tibpost_r.fiber_length	vasint_r.activation	vasint_r.fiber_length	vaslat_r.activation	vaslat_r.fiber_length	vasmed_r.activation	vasmed_r.fiber_length	addbrev_l.activation	addlong_l.activation	addlong_l.fiber_length	addmagDist_l.activation	addmagIsch_l.activation	addmagIsch_l.fiber_length	addmagMid_l.activation	addmagProx_l.activation	bflh_l.activation	bflh_l.fiber_length	bfsh_l.activation	edl_l.activation	edl_l.fiber_length	ehl_l.activation	ehl_l.fiber_length	fdl_l.activation	fdl_l.fiber_length	fhl_l.activation	fhl_l.fiber_length	gaslat_l.activation	gaslat_l.fiber_length	gasmed_l.activation	gasmed_l.fiber_length	glmax1_l.activation	glmax2_l.activation	glmax3_l.activation	glmed1_l.activation	glmed2_l.activation	glmed3_l.activation	glmin1_l.activation	glmin2_l.activation	glmin3_l.activation	glmin3_l.fiber_length	grac_l.activation	iliacus_l.activation	perbrev_l.activation	perbrev_l.fiber_length	perlong_l.activation	perlong_l.fiber_length	piri_l.activation	piri_l.fiber_length	psoas_l.activation	recfem_l.activation	recfem_l.fiber_length	sart_l.activation	semimem_l.activation	semimem_l.fiber_length	semiten_l.activation	semiten_l.fiber_length	soleus_l.activation	soleus_l.fiber_length	tfl_l.activation	tfl_l.fiber_length	tibant_l.activation	tibant_l.fiber_length	tibpost_l.activation	tibpost_l.fiber_length	vasint_l.activation	vasint_l.fiber_length	vaslat_l.activation	vaslat_l.fiber_length	vasmed_l.activation	vasmed_l.fiber_length
      0.01707701	     20.00000000	      0.00000000	      0.00000000	      0.25000000	    -21.94577321	     -0.01085176	     -0.00096321	      0.01517476	      0.70915449	      0.00005492	     73.77350820	    -18.25369569	    -10.10005009	     78.42494166	     78.42494166	      7.48228006	     -2.70241676	      0.00000000	     73.77675068	    -18.33396317	     -9.97909445	     78.43245720	     78.43245720	      8.02209836	      0.00000000	      0.00000000	     -4.98289431	      0.00919224	      0.01570916	     89.97294919	     -0.03752995	     89.82344743	      0.24009275	      0.10815741	      0.00000000	      0.00000000	     89.97422777	     -0.03947379	     89.82586669	      0.24226697	      0.10874065	      0.00000000	      0.00000000	     -0.00000000	      0.00000000	      0.00000000	     -0.00000000	    467.19459842	     -0.72911102	     -0.82281046	      0.13761746	      0.73046599	      0.00385425	   -569.23794484	    -20.23185839	    -21.56260021	   -170.70414806	   -170.70414806	  -1775.66484204	   -202.59271933	      0.00000000	   -568.87512560	    -25.99777807	    -13.57594919	   -170.85077172	   -170.85077172	  -1742.56632584	      0.00000000	      0.00000000	   -575.92777190	      0.47613980	      0.96921608	    111.95279442	     -4.51240269	     -2.40903881	     12.72854315	     -1.59372445	      0.00000000	      0.00000000	    112.08373610	     -4.71011302	     -2.16358177	     12.95126412	     -1.53461479	      0.00000000	      0.00000000	      0.01000000	      0.01000000	      0.09742411	      0.01000000	      0.01000000	      0.20489552	      0.01000000	      0.01000000	      0.01000000	      0.11828571	      0.01000000	      0.01000000	      0.06326969	      0.01000000	      0.07265480	      0.01000000	      0.04705425	      0.01000000	      0.05417098	      0.01000000	      0.05619079	      0.01000000	      0.04634020	      0.01000000	      0.01000000	      0.01000000	      0.01000000	      0.01000000	      0.01000000	      0.01000000	      0.01000000	      0.01000000	      0.04541877	      0.01000000	      0.01000000	      0.01000000	      0.04825086	      0.01000000	      0.05449072	      0.01000000	      0.03029851	      0.01000000	      0.01000000	      0.05896679	      0.01000000	      0.01000000	      0.07753284	      0.01000000	      0.22800462	      0.01000000	      0.05296728	      0.01000000	      0.03809584	      0.01000000	      0.06054886	      0.01000000	      0.04102211	      0.01000000	      0.13028314	      0.01000000	      0.12732989	      0.01000000	      0.12520079	      0.01000000	      0.01000000	      0.09752096	      0.01000000	      0.01000000	      0.20492370	      0.01000000	      0.01000000	      0.01000000	      0.11829451	      0.01000000	      0.01000000	      0.06358730	      0.01000000	      0.07233060	      0.01000000	      0.04659644	      0.01000000	      0.05389783	      0.01000000	      0.05619378	      0.01000000	      0.04634602	      0.01000000	      0.01000000	      0.01000000	      0.01000000	      0.01000000	      0.01000000	      0.01000000	      0.01000000	      0.01000000	      0.04532779	      0.01000000	      0.01000000	      0.01000000	      0.04940911	      0.01000000	      0.05547293	      0.01000000	      0.03024188	      0.01000000	      0.01000000	      0.05895693	      0.01000000	      0.01000000	      0.07753404	      0.01000000	      0.22801645	      0.01000000	      0.05307203	      0.01000000	      0.03796106	      0.01000000	      0.05978613	      0.01000000	      0.04051839	      0.01000000	      0.13028621	      0.01000000	      0.12733257	      0.01000000	      0.12520348
      0.01760152	     20.00000000	      0.00000000	      0.00000000	      0.25000000	    -21.69703461	     -0.01122510	     -0.00137837	      0.01524806	      0.70954386	      0.00005691	     73.46983593	    -18.26440132	    -10.11179877	     78.33320039	     78.33320039	      6.54935095	     -2.80697969	      0.00000000	     73.47326833	    -18.34764530	     -9.98677066	     78.34060899	     78.34060899	      7.10592275	      0.00000000	      0.00000000	     -5.28942486	      0.00943102	      0.01620284	     90.03251655	     -0.03993810	     89.82215240	      0.24688554	      0.10735937	      0.00000000	      0.00000000	     90.03386429	     -0.04198629	     89.82470132	      0.24917736	      0.10797380	      0.00000000	      0.00000000	     -0.00000000	      0.00000000	      0.00000000	     -0.00000000	    481.27939037	     -0.69383616	     -0.75965156	      0.14186927	      0.75428238	      0.00371415	   -588.73168100	    -20.58622826	    -23.24587222	   -179.13443049	   -179.13443049	  -1781.24906742	   -195.97981614	      0.00000000	   -588.37088874	    -26.16698039	    -15.71154473	   -179.39647703	   -179.39647703	  -1750.49757373	      0.00000000	      0.00000000	   -592.90907243	      0.43385174	      0.91255823	    115.18370220	     -4.67054219	     -2.52982863	     13.17430326	     -1.44629079	     -0.00000000	     -0.00000000	    115.31641949	     -4.87069064	     -2.28092739	     13.39999423	     -1.38650903	     -0.00000000	      0.00000000	      0.01000000	      0.01000000	      0.09744685	      0.01000000	      0.01000000	      0.20476263	      0.01000000	      0.01000000	      0.01000000	      0.11812014	      0.01000000	      0.01000000	      0.06381889	      0.01000000	      0.07328945	      0.01000000	      0.04700630	      0.01000000	      0.05406162	      0.01000000	      0.05609385	      0.01000000	      0.04625736	      0.01000000	      0.01000000	      0.01000000	      0.01000000	      0.01000000	      0.01000000	      0.01000000	      0.01000000	      0.01000000	      0.04535158	      0.01000000	      0.01000000	      0.01000000	      0.04812970	      0.01000000	      0.05434019	      0.01000000	      0.03022072	      0.01000000	      0.01000000	      0.05913975	      0.01000000	      0.01000000	      0.07739696	      0.01000000	      0.22781249	      0.01000000	      0.05249920	      0.01000000	      0.03840249	      0.01000000	      0.06125433	      0.01000000	      0.04095321	      0.01000000	      0.13024695	      0.01000000	      0.12729867	      0.01000000	      0.12516920	      0.01000000	      0.01000000	      0.09754764	      0.01000000	      0.01000000	      0.20478970	      0.01000000	      0.01000000	      0.01000000	      0.11812966	      0.01000000	      0.01000000	      0.06415344	      0.01000000	      0.07294928	      0.01000000	      0.04652272	      0.01000000	      0.05379548	      0.01000000	      0.05609685	      0.01000000	      0.04626317	      0.01000000	      0.01000000	      0.01000000	      0.01000000	      0.01000000	      0.01000000	      0.01000000	      0.01000000	      0.01000000	      0.04525720	      0.01000000	      0.01000000	      0.01000000	      0.04933167	      0.01000000	      0.05536263	      0.01000000	      0.03016185	      0.01000000	      0.01000000	      0.05912916	      0.01000000	      0.01000000	      0.07739854	      0.01000000	      0.22782525	      0.01000000	      0.05260984	      0.01000000	      0.03826230	      0.01000000	      0.06046219	      0.01000000	      0.04042186	      0.01000000	      0.13025000	      0.01000000	      0.12730133	      0.01000000	      0.12517187
      0.01812602	     20.00000000	      0.00000000	      0.00000000	      0.25000000	    -21.44092096	     -0.01157892	     -0.00175951	      0.01532357	      0.70994574	      0.00005882	     73.15591424	    -18.27528715	    -10.12444465	     78.23701337	     78.23701337	      5.61420634	     -2.90786113	      0.00000000	     73.15953457	    -18.36140579	     -9.99559333	     78.24425316	     78.24425316	      6.18625050	      0.00000000	      0.00000000	     -5.60483817	      0.00964687	      0.01666575	     90.09377269	     -0.04242963	     89.82079294	      0.25391339	      0.10664334	      0.00000000	      0.00000000	     90.09519048	     -0.04458339	     89.82347326	      0.25632432	      0.10728928	      0.00000000	      0.00000000	     -0.00000000	      0.00000000	      0.00000000	     -0.00000000	    495.30408929	     -0.65467165	     -0.69321228	      0.14607770	      0.77813261	      0.00356153	   -608.30372143	    -20.91930673	    -24.98333438	   -187.65296675	   -187.65296675	  -1784.14752226	   -188.56452015	      0.00000000	   -607.94855348	    -26.29717102	    -17.94662370	   -188.03538978	   -188.03538978	  -1755.93046890	      0.00000000	      0.00000000	   -609.78366507	      0.38875870	      0.85195583	    118.38948772	     -4.83024143	     -2.65465787	     13.62453994	     -1.28102960	     -0.00000000	     -0.00000000	    118.52385485	     -5.03262583	     -2.40253506	     13.85298635	     -1.22064734	     -0.00000000	      0.00000000	      0.01000000	      0.01000000	      0.09747162	      0.01000000	      0.01000000	      0.20444792	      0.01000000	      0.01000000	      0.01000000	      0.11794857	      0.01000000	      0.01000000	      0.06437034	      0.01000000	      0.07392567	      0.01000000	      0.04695556	      0.01000000	      0.05395447	      0.01000000	      0.05599694	      0.01000000	      0.04617456	      0.01000000	      0.01000000	      0.01000000	      0.01000000	      0.01000000	      0.01000000	      0.01000000	      0.01000000	      0.01000000	      0.04528199	      0.01000000	      0.01000000	      0.01000000	      0.04800917	      0.01000000	      0.05418973	      0.01000000	      0.03014000	      0.01000000	      0.01000000	      0.05931851	      0.01000000	      0.01000000	      0.07725646	      0.01000000	      0.22761412	      0.01000000	      0.05201926	      0.01000000	      0.03871962	      0.01000000	      0.06196072	      0.01000000	      0.04088162	      0.01000000	      0.13020887	      0.01000000	      0.12726580	      0.01000000	      0.12513595	      0.01000000	      0.01000000	      0.09757620	      0.01000000	      0.01000000	      0.20447762	      0.01000000	      0.01000000	      0.01000000	      0.11795884	      0.01000000	      0.01000000	      0.06472186	      0.01000000	      0.07357013	      0.01000000	      0.04644682	      0.01000000	      0.05369662	      0.01000000	      0.05599994	      0.01000000	      0.04618037	      0.01000000	      0.01000000	      0.01000000	      0.01000000	      0.01000000	      0.01000000	      0.01000000	      0.01000000	      0.01000000	      0.04518436	      0.01000000	      0.01000000	      0.01000000	      0.04925269	      0.01000000	      0.05525055	      0.01000000	      0.03007897	      0.01000000	      0.01000000	      0.05930719	      0.01000000	      0.01000000	      0.07725845	      0.01000000	      0.22762787	      0.01000000	      0.05213552	      0.01000000	      0.03857422	      0.01000000	      0.06114044	      0.01000000	      0.04032307	      0.01000000	      0.13021188	      0.01000000	      0.12726842	      0.01000000	      0.12513858
      0.01865053	     20.00000000	      0.00000000	      0.00000000	      0.25000000	    -21.17745682	     -0.01191124	     -0.00210513	      0.01540129	      0.71036015	      0.00006064	     72.83169430	    -18.28634148	    -10.13801549	     78.13633550	     78.13633550	      4.67821240	     -3.00464983	      0.00000000	     72.83549864	    -18.37522425	    -10.00561354	     78.14334231	     78.14334231	      5.26435395	      0.00000000	      0.00000000	     -5.92908657	      0.00983842	      0.01709600	     90.15670607	     -0.04500546	     89.81936685	      0.26117893	      0.10601883	      0.00000000	      0.00000000	     90.15819473	     -0.04726591	     89.82218019	      0.26371035	      0.10669658	      0.00000000	      0.00000000	     -0.00000000	      0.00000000	     -0.00000000	     -0.00000000	    509.32092938	     -0.61197800	     -0.62433489	      0.15025777	      0.80211132	      0.00339804	   -628.01631699	    -21.22797412	    -26.77251350	   -196.25943610	   -196.25943610	  -1784.51144492	   -180.37841476	      0.00000000	   -627.67042914	    -26.38784838	    -20.27730907	   -196.76584370	   -196.76584370	  -1759.00050623	      0.00000000	      0.00000000	   -626.61427270	      0.34131303	      0.78819539	    121.58231338	     -4.99217737	     -2.78397401	     14.08110378	     -1.09711957	     -0.00000000	      0.00000000	    121.71816322	     -5.19653374	     -2.52892844	     14.31202020	     -1.03622799	      0.00000000	      0.00000000	      0.01000000	      0.01000000	      0.09749855	      0.01000000	      0.01000000	      0.20424997	      0.01000000	      0.01000000	      0.01000000	      0.11777088	      0.01000000	      0.01000000	      0.06492320	      0.01000000	      0.07456227	      0.01000000	      0.04690205	      0.01000000	      0.05385036	      0.01000000	      0.05590006	      0.01000000	      0.04609182	      0.01000000	      0.01000000	      0.01000000	      0.01000000	      0.01000000	      0.01000000	      0.01000000	      0.01000000	      0.01000000	      0.04520995	      0.01000000	      0.01000000	      0.01000000	      0.04788959	      0.01000000	      0.05403977	      0.01000000	      0.03005631	      0.01000000	      0.01000000	      0.05950316	      0.01000000	      0.01000000	      0.07711126	      0.01000000	      0.22740941	      0.01000000	      0.05152887	      0.01000000	      0.03904724	      0.01000000	      0.06266675	      0.01000000	      0.04080739	      0.01000000	      0.13016888	      0.01000000	      0.12723123	      0.01000000	      0.12510103	      0.01000000	      0.01000000	      0.09760675	      0.01000000	      0.01000000	      0.20427947	      0.01000000	      0.01000000	      0.01000000	      0.11778194	      0.01000000	      0.01000000	      0.06529170	      0.01000000	      0.07419203	      0.01000000	      0.04636893	      0.01000000	      0.05360066	      0.01000000	      0.05590305	      0.01000000	      0.04609763	      0.01000000	      0.01000000	      0.01000000	      0.01000000	      0.01000000	      0.01000000	      0.01000000	      0.01000000	      0.01000000	      0.04510924	      0.01000000	      0.01000000	      0.01000000	      0.04917229	      0.01000000	      0.05513689	      0.01000000	      0.02999323	      0.01000000	      0.01000000	      0.05949106	      0.01000000	      0.01000000	      0.07711372	      0.01000000	      0.22742419	      0.01000000	      0.05165032	      0.01000000	      0.03889688	      0.01000000	      0.06181975	      0.01000000	      0.04022225	      0.01000000	      0.13017181	      0.01000000	      0.12723380	      0.01000000	      0.12510359
